<svg width="1204" height="777" xmlns="http://www.w3.org/2000/svg"><g><path d="M-34,-134L-93,236L-32,110Z" fill="#fff5e5" stroke="#fff5e5"/><path d="M-34,-134L-32,110L70,46Z" fill="#fff6ed" stroke="#fff6ed"/><path d="M-34,-134L70,46L70,-75Z" fill="#fff3ea" stroke="#fff3ea"/><path d="M-34,-134L70,-75L475,-121Z" fill="#fee9d6" stroke="#fee9d6"/><path d="M-34,-134L475,-121L731,-125Z" fill="#fed7b7" stroke="#fed7b7"/><path d="M70,-75L70,46L259,21Z" fill="#ffecdb" stroke="#ffecdb"/><path d="M70,-75L259,21L276,-34Z" fill="#fee7d1" stroke="#fee7d1"/><path d="M70,-75L276,-34L475,-121Z" fill="#fee1c6" stroke="#fee1c6"/><path d="M276,-34L259,21L376,57Z" fill="#fedebe" stroke="#fedebe"/><path d="M276,-34L376,57L428,-33Z" fill="#fedabb" stroke="#fedabb"/><path d="M276,-34L428,-33L475,-121Z" fill="#fed7b7" stroke="#fed7b7"/><path d="M428,-33L376,57L513,112Z" fill="#fed0a6" stroke="#fed0a6"/><path d="M428,-33L513,112L648,18Z" fill="#feca9f" stroke="#feca9f"/><path d="M428,-33L648,18L475,-121Z" fill="#fecda8" stroke="#fecda8"/><path d="M475,-121L648,18L731,-125Z" fill="#fdc49c" stroke="#fdc49c"/><path d="M731,-125L648,18L841,-19Z" fill="#f6b690" stroke="#f6b690"/><path d="M731,-125L841,-19L972,-103Z" fill="#f0aa86" stroke="#f0aa86"/><path d="M731,-125L972,-103L1129,-95Z" fill="#ea9e80" stroke="#ea9e80"/><path d="M731,-125L1129,-95L1485,-79Z" fill="#e08b80" stroke="#e08b80"/><path d="M841,-19L648,18L841,60Z" fill="#f4b088" stroke="#f4b088"/><path d="M841,-19L841,60L955,22Z" fill="#eea57e" stroke="#eea57e"/><path d="M841,-19L955,22L972,-103Z" fill="#eba180" stroke="#eba180"/><path d="M972,-103L955,22L1129,-95Z" fill="#e59680" stroke="#e59680"/><path d="M1129,-95L955,22L1161,25Z" fill="#e28e80" stroke="#e28e80"/><path d="M1129,-95L1161,25L1227,-55Z" fill="#dc8480" stroke="#dc8480"/><path d="M1129,-95L1227,-55L1485,-79Z" fill="#d68080" stroke="#d68080"/><path d="M1227,-55L1161,25L1225,96Z" fill="#da7f7a" stroke="#da7f7a"/><path d="M1227,-55L1225,96L1439,21Z" fill="#d57e7b" stroke="#d57e7b"/><path d="M1227,-55L1439,21L1485,-79Z" fill="#d08080" stroke="#d08080"/><path d="M1485,-79L1439,21L1457,320Z" fill="#cb796a" stroke="#cb796a"/><path d="M1485,-79L1457,320L1455,635Z" fill="#cb6339" stroke="#cb6339"/><path d="M1485,-79L1455,635L1453,815Z" fill="#cb451d" stroke="#cb451d"/><path d="M-32,110L-93,236L55,275Z" fill="#ffe8bf" stroke="#ffe8bf"/><path d="M-32,110L55,275L70,46Z" fill="#ffe9c6" stroke="#ffe9c6"/><path d="M70,46L55,275L232,181Z" fill="#ffe1b3" stroke="#ffe1b3"/><path d="M70,46L232,181L259,21Z" fill="#fee2bf" stroke="#fee2bf"/><path d="M259,21L232,181L376,57Z" fill="#fedaaf" stroke="#fedaaf"/><path d="M376,57L232,181L358,223Z" fill="#fed299" stroke="#fed299"/><path d="M376,57L358,223L513,112Z" fill="#fecc94" stroke="#fecc94"/><path d="M513,112L358,223L517,220Z" fill="#fec481" stroke="#fec481"/><path d="M513,112L517,220L697,250Z" fill="#feba70" stroke="#feba70"/><path d="M513,112L697,250L648,18Z" fill="#fdbb7d" stroke="#fdbb7d"/><path d="M648,18L697,250L786,189Z" fill="#f8af6d" stroke="#f8af6d"/><path d="M648,18L786,189L841,60Z" fill="#f5ae78" stroke="#f5ae78"/><path d="M841,60L786,189L983,187Z" fill="#ee9d5f" stroke="#ee9d5f"/><path d="M841,60L983,187L955,22Z" fill="#eb9a69" stroke="#eb9a69"/><path d="M955,22L983,187L1161,25Z" fill="#e48f6c" stroke="#e48f6c"/><path d="M1161,25L983,187L1111,211Z" fill="#e1845d" stroke="#e1845d"/><path d="M1161,25L1111,211L1225,96Z" fill="#dd7d64" stroke="#dd7d64"/><path d="M1225,96L1111,211L1262,272Z" fill="#db7350" stroke="#db7350"/><path d="M1225,96L1262,272L1420,280Z" fill="#d46e4a" stroke="#d46e4a"/><path d="M1225,96L1420,280L1439,21Z" fill="#d1765f" stroke="#d1765f"/><path d="M1439,21L1420,280L1457,320Z" fill="#cc704c" stroke="#cc704c"/><path d="M-93,236L-98,672L-93,404Z" fill="#ffc89c" stroke="#ffc89c"/><path d="M-93,236L-93,404L33,336Z" fill="#ffd8a8" stroke="#ffd8a8"/><path d="M-93,236L33,336L55,275Z" fill="#ffdbab" stroke="#ffdbab"/><path d="M55,275L33,336L203,339Z" fill="#ffce94" stroke="#ffce94"/><path d="M55,275L203,339L232,181Z" fill="#fed196" stroke="#fed196"/><path d="M232,181L203,339L358,223Z" fill="#fecc8b" stroke="#fecc8b"/><path d="M358,223L203,339L392,433Z" fill="#feba71" stroke="#feba71"/><path d="M358,223L392,433L517,220Z" fill="#feb86d" stroke="#feb86d"/><path d="M517,220L392,433L569,318Z" fill="#feae5e" stroke="#feae5e"/><path d="M517,220L569,318L697,250Z" fill="#feae5f" stroke="#feae5f"/><path d="M697,250L569,318L664,378Z" fill="#fca14e" stroke="#fca14e"/><path d="M697,250L664,378L842,339Z" fill="#f69544" stroke="#f69544"/><path d="M697,250L842,339L786,189Z" fill="#f49a4e" stroke="#f49a4e"/><path d="M786,189L842,339L983,187Z" fill="#ee9349" stroke="#ee9349"/><path d="M983,187L842,339L919,345Z" fill="#ec853a" stroke="#ec853a"/><path d="M983,187L919,345L1111,211Z" fill="#e68143" stroke="#e68143"/><path d="M1111,211L919,345L1170,431Z" fill="#e26e31" stroke="#e26e31"/><path d="M1111,211L1170,431L1262,272Z" fill="#dc6437" stroke="#dc6437"/><path d="M1262,272L1170,431L1321,433Z" fill="#d75626" stroke="#d75626"/><path d="M1262,272L1321,433L1420,280Z" fill="#d25d31" stroke="#d25d31"/><path d="M1420,280L1321,433L1457,320Z" fill="#cf5b2e" stroke="#cf5b2e"/><path d="M-93,404L-98,672L-91,576Z" fill="#ffaf92" stroke="#ffaf92"/><path d="M-93,404L-91,576L51,549Z" fill="#ffb48e" stroke="#ffb48e"/><path d="M-93,404L51,549L33,336Z" fill="#ffc28f" stroke="#ffc28f"/><path d="M33,336L51,549L203,339Z" fill="#ffbf83" stroke="#ffbf83"/><path d="M203,339L51,549L275,491Z" fill="#fead72" stroke="#fead72"/><path d="M203,339L275,491L392,433Z" fill="#fead65" stroke="#fead65"/><path d="M392,433L275,491L347,508Z" fill="#fe9d5a" stroke="#fe9d5a"/><path d="M392,433L347,508L585,475Z" fill="#fe964e" stroke="#fe964e"/><path d="M392,433L585,475L569,318Z" fill="#fe9d4a" stroke="#fe9d4a"/><path d="M569,318L585,475L664,378Z" fill="#fe9a41" stroke="#fe9a41"/><path d="M664,378L585,475L711,529Z" fill="#fb8536" stroke="#fb8536"/><path d="M664,378L711,529L821,476Z" fill="#f67c2f" stroke="#f67c2f"/><path d="M664,378L821,476L842,339Z" fill="#f48530" stroke="#f48530"/><path d="M842,339L821,476L919,345Z" fill="#ef7d29" stroke="#ef7d29"/><path d="M919,345L821,476L1011,532Z" fill="#eb691e" stroke="#eb691e"/><path d="M919,345L1011,532L1076,491Z" fill="#e65e1d" stroke="#e65e1d"/><path d="M919,345L1076,491L1170,431Z" fill="#e35f21" stroke="#e35f21"/><path d="M1170,431L1076,491L1321,620Z" fill="#db3b18" stroke="#db3b18"/><path d="M1170,431L1321,620L1324,486Z" fill="#d63918" stroke="#d63918"/><path d="M1170,431L1324,486L1321,433Z" fill="#d6471e" stroke="#d6471e"/><path d="M1321,433L1324,486L1419,552Z" fill="#d13e1a" stroke="#d13e1a"/><path d="M1321,433L1419,552L1457,320Z" fill="#cf4a1f" stroke="#cf4a1f"/><path d="M1457,320L1419,552L1455,635Z" fill="#cc3c19" stroke="#cc3c19"/><path d="M-91,576L-98,672L49,629Z" fill="#ff9b84" stroke="#ff9b84"/><path d="M-91,576L49,629L51,549Z" fill="#ffa080" stroke="#ffa080"/><path d="M51,549L49,629L256,631Z" fill="#ff936d" stroke="#ff936d"/><path d="M51,549L256,631L275,491Z" fill="#fe9767" stroke="#fe9767"/><path d="M275,491L256,631L347,508Z" fill="#fe9259" stroke="#fe9259"/><path d="M347,508L256,631L374,724Z" fill="#fe7f4e" stroke="#fe7f4e"/><path d="M347,508L374,724L470,727Z" fill="#fe7242" stroke="#fe7242"/><path d="M347,508L470,727L585,475Z" fill="#fe7f41" stroke="#fe7f41"/><path d="M585,475L470,727L680,619Z" fill="#fe6e31" stroke="#fe6e31"/><path d="M585,475L680,619L711,529Z" fill="#fb732e" stroke="#fb732e"/><path d="M711,529L680,619L876,704Z" fill="#f5571e" stroke="#f5571e"/><path d="M711,529L876,704L821,476Z" fill="#f25c1d" stroke="#f25c1d"/><path d="M821,476L876,704L1011,532Z" fill="#ec5013" stroke="#ec5013"/><path d="M1011,532L876,704L930,700Z" fill="#ea3c0c" stroke="#ea3c0c"/><path d="M1011,532L930,700L1084,703Z" fill="#e6340c" stroke="#e6340c"/><path d="M1011,532L1084,703L1076,491Z" fill="#e33d12" stroke="#e33d12"/><path d="M1076,491L1084,703L1321,620Z" fill="#dd2b10" stroke="#dd2b10"/><path d="M1324,486L1321,620L1419,552Z" fill="#d13115" stroke="#d13115"/><path d="M1419,552L1321,620L1455,635Z" fill="#cf2610" stroke="#cf2610"/><path d="M-98,672L-79,946L-73,855Z" fill="#ff7d7c" stroke="#ff7d7c"/><path d="M-98,672L-73,855L49,629Z" fill="#ff867a" stroke="#ff867a"/><path d="M49,629L-73,855L43,879Z" fill="#ff766e" stroke="#ff766e"/><path d="M49,629L43,879L274,785Z" fill="#ff705e" stroke="#ff705e"/><path d="M49,629L274,785L256,631Z" fill="#fe7c5b" stroke="#fe7c5b"/><path d="M256,631L274,785L374,724Z" fill="#fe6d48" stroke="#fe6d48"/><path d="M374,724L274,785L407,850Z" fill="#fe5b3d" stroke="#fe5b3d"/><path d="M374,724L407,850L470,727Z" fill="#fe5835" stroke="#fe5835"/><path d="M470,727L407,850L551,877Z" fill="#fe512e" stroke="#fe512e"/><path d="M470,727L551,877L615,818Z" fill="#fe4b25" stroke="#fe4b25"/><path d="M470,727L615,818L680,619Z" fill="#fe5424" stroke="#fe5424"/><path d="M680,619L615,818L804,846Z" fill="#f83f16" stroke="#f83f16"/><path d="M680,619L804,846L876,704Z" fill="#f33d11" stroke="#f33d11"/><path d="M876,704L804,846L1020,816Z" fill="#ec2401" stroke="#ec2401"/><path d="M876,704L1020,816L930,700Z" fill="#ea2703" stroke="#ea2703"/><path d="M930,700L1020,816L1084,703Z" fill="#e61f03" stroke="#e61f03"/><path d="M1084,703L1020,816L1169,833Z" fill="#e10e00" stroke="#e10e00"/><path d="M1084,703L1169,833L1234,784Z" fill="#dd0700" stroke="#dd0700"/><path d="M1084,703L1234,784L1321,620Z" fill="#da1007" stroke="#da1007"/><path d="M1321,620L1234,784L1453,815Z" fill="#d20803" stroke="#d20803"/><path d="M1321,620L1453,815L1455,635Z" fill="#ce1308" stroke="#ce1308"/><path d="M-73,855L-79,946L43,879Z" fill="#ff7a75" stroke="#ff7a75"/><path d="M43,879L-79,946L39,983Z" fill="#ff776f" stroke="#ff776f"/><path d="M43,879L39,983L171,922Z" fill="#ff7063" stroke="#ff7063"/><path d="M43,879L171,922L274,785Z" fill="#fe6a57" stroke="#fe6a57"/><path d="M274,785L171,922L407,850Z" fill="#fe6145" stroke="#fe6145"/><path d="M407,850L171,922L434,973Z" fill="#fe5c3e" stroke="#fe5c3e"/><path d="M407,850L434,973L551,877Z" fill="#fe522f" stroke="#fe522f"/><path d="M551,877L434,973L560,964Z" fill="#fe4e29" stroke="#fe4e29"/><path d="M551,877L560,964L705,958Z" fill="#fe461e" stroke="#fe461e"/><path d="M551,877L705,958L615,818Z" fill="#fd441c" stroke="#fd441c"/><path d="M615,818L705,958L804,846Z" fill="#f83a14" stroke="#f83a14"/><path d="M804,846L705,958L783,1017Z" fill="#f5340e" stroke="#f5340e"/><path d="M804,846L783,1017L957,935Z" fill="#f02a06" stroke="#f02a06"/><path d="M804,846L957,935L1020,816Z" fill="#eb2100" stroke="#eb2100"/><path d="M1020,816L957,935L1069,919Z" fill="#e61700" stroke="#e61700"/><path d="M1020,816L1069,919L1169,833Z" fill="#e10e00" stroke="#e10e00"/><path d="M1169,833L1069,919L1259,937Z" fill="#dd0500" stroke="#dd0500"/><path d="M1169,833L1259,937L1234,784Z" fill="#d90000" stroke="#d90000"/><path d="M1234,784L1259,937L1453,815Z" fill="#d40000" stroke="#d40000"/><path d="M1453,815L1259,937L1438,915Z" fill="#d00000" stroke="#d00000"/><path d="M39,983L783,1017L434,973Z" fill="#fe5634" stroke="#fe5634"/><path d="M39,983L434,973L171,922Z" fill="#fe6650" stroke="#fe6650"/><path d="M434,973L783,1017L560,964Z" fill="#fe481f" stroke="#fe481f"/><path d="M560,964L783,1017L705,958Z" fill="#f93d16" stroke="#f93d16"/><path d="M783,1017L1438,915L1259,937Z" fill="#dd0600" stroke="#dd0600"/><path d="M783,1017L1259,937L1069,919Z" fill="#e41400" stroke="#e41400"/><path d="M783,1017L1069,919L957,935Z" fill="#ea2000" stroke="#ea2000"/></g></svg>